<svg xmlns="http://www.w3.org/2000/svg" viewBox="0 0 64 64" fill="none">
  <defs>
    <linearGradient id="g" x1="0" y1="0" x2="1" y2="1">
      <stop offset="0%" stop-color="#4f46e5"/>
      <stop offset="100%" stop-color="#14b8a6"/>
    </linearGradient>
  </defs>
  <rect x="4" y="4" width="56" height="56" rx="14" fill="#0f172a"/>
  <path d="M20 32c0-6.5 5.1-11.8 11.6-12 6.7-.2 12.4 5.1 12.4 11.8v6.2c0 3.1-2.5 5.6-5.6 5.6H28c-4.4 0-8-3.6-8-8V32z" fill="url(#g)"/>
  <path d="M26 26c-.7 0-1.2.5-1.2 1.2V34c0 3.3 2.7 6 6 6h5.2c.7 0 1.2-.5 1.2-1.2 0-.6-.4-1.1-.9-1.2l-.3-.1c-2.5-.6-4.2-2.9-4.2-5.5v-4.8c0-.7-.5-1.2-1.2-1.2H26z" fill="#fff" opacity=".9"/>
  <circle cx="24" cy="38" r="2" fill="#fff" opacity=".8"/>
  <circle cx="38" cy="22" r="2.5" fill="#a5b4fc"/>
</svg>
